<svg width="24" height="11" viewBox="0 0 24 11" fill="none" xmlns="http://www.w3.org/2000/svg">
<path d="M9.94331 0.159972C9.94331 0.159972 8.42464 -0.199755 7.80331 0.159972C7.34065 0.427439 5.54999 1.24338 4.66665 1.64289V9.14212C5.17799 9.10488 6.19532 9.03632 6.62998 9.05833C7.92531 9.12519 8.89264 9.51539 9.87064 9.90982C10.7833 10.278 11.7053 10.6504 12.9106 10.7664C13.2146 10.7952 13.5093 10.8333 13.7953 10.8697C14.8286 11.0017 15.7433 11.1185 16.5006 10.7664C17.4673 10.3169 22.9886 6.90166 23.6786 6.00277C24.3693 5.10388 24.0239 2.67636 21.8839 3.12581C20.8286 3.34757 19.6039 3.98576 18.4946 4.56386C17.3546 5.1572 16.3353 5.68875 15.7413 5.64304C14.568 5.55332 11.4613 4.83387 11.4613 4.83387L15.028 4.88889C15.028 4.88889 15.532 4.92275 16.224 4.29471C16.9173 3.66667 17.536 1.86804 16.5006 1.86804C15.4653 1.86804 14.3606 1.41774 14.3606 1.41774L9.94331 0.159972ZM0 0.846414C0 0.621931 0.0702378 0.406642 0.195262 0.247908C0.320286 0.0891749 0.489854 0 0.666665 0H2.66666C2.84347 0 3.01304 0.0891749 3.13806 0.247908C3.26309 0.406642 3.33332 0.621931 3.33332 0.846414V10.1536C3.33332 10.3781 3.26309 10.5934 3.13806 10.7521C3.01304 10.9108 2.84347 11 2.66666 11H0.666665C0.489854 11 0.320286 10.9108 0.195262 10.7521C0.0702378 10.5934 0 10.3781 0 10.1536V0.846414Z" fill="#036C03"/>
</svg>
