<svg width="17" height="16" viewBox="0 0 17 16" fill="none" xmlns="http://www.w3.org/2000/svg">
<path d="M11.1666 2.00004C11.1666 1.82323 11.0963 1.65366 10.9713 1.52864C10.8463 1.40361 10.6767 1.33337 10.4999 1.33337H6.49992C6.32311 1.33337 6.15354 1.40361 6.02851 1.52864C5.90349 1.65366 5.83325 1.82323 5.83325 2.00004V5.33337H2.49992C2.32311 5.33337 2.15354 5.40361 2.02851 5.52864C1.90349 5.65366 1.83325 5.82323 1.83325 6.00004V10C1.83325 10.1769 1.90349 10.3464 2.02851 10.4714C2.15354 10.5965 2.32311 10.6667 2.49992 10.6667H5.83325V14C5.83325 14.1769 5.90349 14.3464 6.02851 14.4714C6.15354 14.5965 6.32311 14.6667 6.49992 14.6667H10.4999C10.6767 14.6667 10.8463 14.5965 10.9713 14.4714C11.0963 14.3464 11.1666 14.1769 11.1666 14V10.6667H14.4999C14.6767 10.6667 14.8463 10.5965 14.9713 10.4714C15.0963 10.3464 15.1666 10.1769 15.1666 10V6.00004C15.1666 5.82323 15.0963 5.65366 14.9713 5.52864C14.8463 5.40361 14.6767 5.33337 14.4999 5.33337H11.1666V2.00004Z" stroke="#AAACAE" stroke-width="2" stroke-linecap="round" stroke-linejoin="round"/>
</svg>
