<svg width="24" height="25" viewBox="0 0 24 25" fill="none" xmlns="http://www.w3.org/2000/svg">
<path d="M20 13.75C20 13.5511 19.921 13.3603 19.7803 13.2197C19.6397 13.079 19.4489 13 19.25 13H16.25C16.0511 13 15.8603 13.079 15.7197 13.2197C15.579 13.3603 15.5 13.5511 15.5 13.75V20.5H14V4.25C14 3.522 13.998 3.05 13.952 2.704C13.908 2.379 13.837 2.277 13.78 2.22C13.723 2.163 13.621 2.092 13.296 2.048C12.949 2.002 12.478 2 11.75 2C11.022 2 10.55 2.002 10.204 2.048C9.879 2.092 9.777 2.163 9.72 2.22C9.663 2.277 9.592 2.379 9.548 2.704C9.502 3.051 9.5 3.522 9.5 4.25V20.5H8V8.75C8 8.55109 7.92098 8.36032 7.78033 8.21967C7.63968 8.07902 7.44891 8 7.25 8H4.25C4.05109 8 3.86032 8.07902 3.71967 8.21967C3.57902 8.36032 3.5 8.55109 3.5 8.75V20.5H1.75C1.55109 20.5 1.36032 20.579 1.21967 20.7197C1.07902 20.8603 1 21.0511 1 21.25C1 21.4489 1.07902 21.6397 1.21967 21.7803C1.36032 21.921 1.55109 22 1.75 22H21.75C21.9489 22 22.1397 21.921 22.2803 21.7803C22.421 21.6397 22.5 21.4489 22.5 21.25C22.5 21.0511 22.421 20.8603 22.2803 20.7197C22.1397 20.579 21.9489 20.5 21.75 20.5H20V13.75Z" fill="#036C03"/>
</svg>
