<svg width="297" height="297" viewBox="0 0 297 297" fill="none" xmlns="http://www.w3.org/2000/svg">
<path d="M211.696 77.7308C211.696 77.7308 187.781 51.5295 149.92 52.7828C112.058 54.0362 79.7623 79.4237 53.062 99.2871C26.3617 119.15 19.204 150.003 34.7252 174.089C50.2464 198.176 74.9806 188.037 106.469 203.671C137.956 219.305 143.938 228.185 179.014 224.383C214.089 220.582 240.79 181.699 236.81 140.279C232.83 98.8594 211.696 77.7308 211.696 77.7308Z" fill="#92E3A9"/>
<path opacity="0.7" d="M211.696 77.7308C211.696 77.7308 187.781 51.5295 149.92 52.7828C112.058 54.0362 79.7623 79.4237 53.062 99.2871C26.3617 119.15 19.204 150.003 34.7252 174.089C50.2464 198.176 74.9806 188.037 106.469 203.671C137.956 219.305 143.938 228.185 179.014 224.383C214.089 220.582 240.79 181.699 236.81 140.279C232.83 98.8594 211.696 77.7308 211.696 77.7308Z" fill="white"/>
<path d="M153.026 239.542C218.152 239.542 270.947 236.662 270.947 233.109C270.947 229.557 218.152 226.676 153.026 226.676C87.9004 226.676 35.1054 229.557 35.1054 233.109C35.1054 236.662 87.9004 239.542 153.026 239.542Z" fill="#92E3A9"/>
<path opacity="0.3" d="M153.026 239.542C218.152 239.542 270.947 236.662 270.947 233.109C270.947 229.557 218.152 226.676 153.026 226.676C87.9004 226.676 35.1054 229.557 35.1054 233.109C35.1054 236.662 87.9004 239.542 153.026 239.542Z" fill="white"/>
<path d="M222.714 136.145C222.679 136.145 223.124 133.929 223.172 133.769C223.683 132.189 225.607 129.433 227.466 129.439C227.775 129.447 228.079 129.521 228.358 129.655C228.637 129.789 228.884 129.98 229.084 130.216C229.284 130.452 229.432 130.727 229.519 131.024C229.606 131.321 229.629 131.633 229.587 131.939C229.45 133.252 228.274 134.363 227.211 135.01C225.963 135.788 222.714 136.145 222.714 136.145Z" fill="#92E3A9"/>
<path d="M219.109 121.229C220.861 121.859 221.734 125.102 221.675 126.766C221.675 126.908 221.342 129.142 221.312 129.142H221.277C221.413 129.652 221.562 130.205 221.71 130.805C221.972 131.921 222.257 133.181 222.477 134.583C222.732 136.086 222.898 137.604 222.976 139.127C223.07 140.831 223.013 142.541 222.803 144.235C222.8 144.255 222.8 144.275 222.803 144.294C223.035 143.801 223.718 142.435 223.784 142.334C224.698 140.944 227.276 138.77 229.076 139.293C229.371 139.384 229.644 139.536 229.876 139.739C230.109 139.942 230.296 140.191 230.426 140.471C230.556 140.751 230.625 141.056 230.63 141.364C230.635 141.673 230.575 141.979 230.454 142.263C229.979 143.487 228.553 144.253 227.359 144.591C226.011 144.978 223.005 144.52 222.768 144.485C222.514 146.202 222.145 147.901 221.663 149.569C221.386 150.543 221.085 151.518 220.76 152.492C220.968 152.07 221.164 151.696 221.194 151.642C222.108 150.252 224.686 148.078 226.486 148.595C226.782 148.685 227.055 148.837 227.288 149.039C227.521 149.242 227.709 149.492 227.839 149.772C227.969 150.052 228.038 150.357 228.043 150.666C228.047 150.975 227.986 151.281 227.864 151.565C227.389 152.795 225.964 153.555 224.77 153.899C223.576 154.244 220.986 153.899 220.309 153.81C220.184 154.179 220.059 154.553 219.928 154.921C219.334 156.703 218.693 158.485 218.146 160.231C217.95 160.825 217.778 161.467 217.606 162.085C217.796 161.711 217.956 161.396 217.986 161.354C218.895 159.964 221.479 157.79 223.273 158.307C223.568 158.398 223.84 158.55 224.073 158.753C224.306 158.956 224.493 159.205 224.624 159.485C224.754 159.765 224.824 160.069 224.83 160.377C224.836 160.686 224.777 160.992 224.657 161.277C224.182 162.501 222.75 163.267 221.556 163.605C220.362 163.944 218.028 163.647 217.22 163.534C217.059 164.176 216.905 164.811 216.78 165.435C216.703 165.863 216.602 166.272 216.549 166.706C216.495 167.14 216.43 167.561 216.37 167.977C216.287 168.791 216.192 169.635 216.133 170.43C216.085 170.983 216.05 171.512 216.014 172.04C216.198 171.446 216.608 170.223 216.638 170.122C217.297 168.816 218.279 167.7 219.489 166.878C219.555 166.73 219.637 166.588 219.732 166.457C219.901 166.197 220.122 165.976 220.381 165.808C220.64 165.64 220.932 165.528 221.237 165.48C221.543 165.432 221.855 165.448 222.153 165.529C222.452 165.609 222.73 165.751 222.97 165.946C224.383 167.134 224.027 170.508 223.38 172.04C223.344 172.129 222.815 173.062 222.477 173.644C222.732 173.335 222.97 173.05 223.237 172.705C223.754 172.076 224.288 171.458 224.859 170.793L225.732 169.848C226.017 169.522 226.361 169.219 226.676 168.904C227.419 168.185 228.209 167.49 229.023 166.807C228.464 166.356 226.522 164.71 225.964 163.594C225.405 162.477 225.007 160.915 225.589 159.738C225.717 159.456 225.902 159.203 226.134 158.997C226.365 158.791 226.637 158.637 226.933 158.543C227.228 158.449 227.54 158.419 227.848 158.454C228.156 158.489 228.453 158.589 228.72 158.746C230.294 159.733 230.454 163.089 230.044 164.686C230.044 164.787 229.593 165.91 229.349 166.522C229.842 166.118 230.329 165.708 230.84 165.334C232.313 164.193 233.84 163.089 235.355 161.978L236.739 160.95C236.543 160.79 234.19 158.889 233.561 157.642C233.008 156.531 232.604 154.963 233.187 153.781C233.315 153.499 233.5 153.247 233.732 153.041C233.964 152.836 234.236 152.681 234.531 152.588C234.826 152.494 235.138 152.464 235.445 152.499C235.753 152.533 236.05 152.632 236.317 152.789C237.891 153.781 238.051 157.137 237.642 158.729C237.612 158.853 237 160.469 236.822 160.873C237.838 160.113 238.841 159.352 239.792 158.562C241.093 157.5 242.323 156.353 243.475 155.129C243.386 155.058 240.92 153.086 240.279 151.803C239.721 150.692 239.323 149.124 239.905 147.948C240.031 147.665 240.216 147.413 240.447 147.207C240.678 147.001 240.95 146.846 241.245 146.752C241.54 146.659 241.851 146.628 242.159 146.663C242.466 146.698 242.763 146.798 243.029 146.956C244.609 147.942 244.77 151.298 244.36 152.896C244.33 152.997 243.867 154.232 243.629 154.814L243.724 154.868C244.851 153.606 245.863 152.246 246.748 150.805C247.241 150.021 247.674 149.242 248.078 148.47C247.579 148.15 245.328 146.688 244.621 145.572C243.914 144.455 243.38 143.017 243.825 141.782C243.921 141.491 244.077 141.224 244.282 140.996C244.487 140.769 244.737 140.587 245.017 140.462C245.296 140.337 245.599 140.271 245.905 140.269C246.211 140.267 246.514 140.329 246.795 140.451C248.476 141.259 248.999 144.58 248.767 146.225C248.767 146.314 248.53 147.211 248.357 147.864C248.53 147.514 248.72 147.158 248.88 146.819C249.474 145.548 249.979 144.348 250.395 143.255C250.632 142.661 250.828 142.067 250.989 141.574C250.662 140.98 249.391 138.693 249.266 137.416C249.141 136.139 249.343 134.571 250.312 133.68C250.532 133.463 250.796 133.295 251.086 133.188C251.376 133.08 251.686 133.034 251.994 133.054C252.303 133.073 252.604 133.158 252.878 133.301C253.152 133.445 253.393 133.645 253.585 133.888C254.701 135.379 253.638 138.562 252.676 139.923C252.593 140.035 251.078 141.705 251.06 141.705V141.669C250.894 142.174 250.716 142.714 250.502 143.297C250.11 144.372 249.646 145.589 249.064 146.861C248.444 148.254 247.744 149.611 246.967 150.924C246.102 152.395 245.108 153.786 243.997 155.082L243.956 155.129C244.419 154.838 245.738 154.084 245.851 154.036C247.383 153.383 250.721 153.008 251.945 154.416C252.141 154.655 252.285 154.933 252.367 155.231C252.449 155.529 252.468 155.84 252.422 156.146C252.376 156.452 252.267 156.744 252.101 157.005C251.934 157.266 251.716 157.489 251.458 157.659C250.383 158.42 248.767 158.253 247.585 157.891C246.249 157.469 244.021 155.432 243.813 155.272C242.655 156.564 241.411 157.776 240.089 158.901C239.317 159.566 238.527 160.208 237.713 160.837C238.123 160.606 238.491 160.398 238.544 160.374C240.071 159.721 243.409 159.346 244.633 160.754C244.83 160.993 244.974 161.27 245.057 161.568C245.14 161.866 245.159 162.179 245.113 162.484C245.067 162.79 244.957 163.083 244.79 163.344C244.624 163.605 244.404 163.827 244.146 163.997C243.077 164.758 241.461 164.591 240.279 164.229C239.097 163.867 237.119 162.156 236.608 161.699L235.675 162.417C234.179 163.564 232.705 164.698 231.25 165.857C230.745 166.267 230.264 166.688 229.777 167.104C230.145 166.896 230.448 166.724 230.502 166.706C232.028 166.047 235.367 165.678 236.59 167.08C236.788 167.319 236.933 167.596 237.017 167.894C237.1 168.192 237.119 168.505 237.073 168.811C237.027 169.117 236.917 169.41 236.75 169.671C236.583 169.932 236.362 170.154 236.103 170.324C235.028 171.084 233.418 170.918 232.236 170.561C231.054 170.205 229.266 168.648 228.672 168.108C228.191 168.553 227.704 168.993 227.258 169.45C226.956 169.765 226.664 170.044 226.367 170.383C226.07 170.722 225.773 171.024 225.512 171.345C224.995 171.975 224.455 172.628 223.962 173.258C223.617 173.692 223.296 174.113 222.976 174.535C223.469 174.125 224.467 173.347 224.556 173.282C225.964 172.403 229.207 171.529 230.632 172.729C230.863 172.936 231.047 173.19 231.173 173.473C231.299 173.756 231.364 174.062 231.364 174.372C231.364 174.681 231.299 174.988 231.173 175.271C231.047 175.554 230.863 175.807 230.632 176.014C229.688 176.923 228.072 177.024 226.849 176.834C225.494 176.62 223.047 175.052 222.744 174.826C222.209 175.527 221.699 176.216 221.223 176.875C219.578 179.15 218.295 181.105 217.416 182.489L217.327 182.625L216.186 182.073C216.246 181.984 216.305 181.901 216.364 181.806C217.285 180.428 218.628 178.479 220.338 176.216C220.879 175.503 221.467 174.749 222.079 173.977C221.442 173.284 220.847 172.554 220.297 171.791C218.984 172.302 216.258 172.325 215.907 172.325C215.854 173.204 215.806 174.06 215.77 174.868C215.652 177.677 215.664 180.018 215.693 181.651V181.847L214.44 181.253C214.44 179.632 214.505 177.428 214.672 174.832C214.725 173.935 214.802 172.979 214.891 172.005C214.541 171.915 211.708 171.185 210.638 170.329C209.67 169.557 208.648 168.298 208.684 166.985C208.681 166.676 208.743 166.369 208.866 166.085C208.99 165.801 209.172 165.546 209.401 165.338C209.63 165.129 209.9 164.971 210.194 164.874C210.488 164.777 210.8 164.744 211.108 164.776C212.955 165.013 214.499 167.995 214.808 169.629C214.808 169.724 214.903 170.817 214.939 171.47C214.98 171.066 215.01 170.68 215.052 170.282C215.135 169.468 215.242 168.654 215.355 167.781C215.42 167.365 215.491 166.944 215.557 166.516C215.622 166.088 215.735 165.649 215.824 165.209C216.05 164.199 216.323 163.184 216.626 162.168C215.913 162.091 213.389 161.794 212.302 161.176C211.215 160.558 210.027 159.465 209.866 158.164C209.815 157.859 209.83 157.546 209.909 157.246C209.988 156.946 210.129 156.666 210.324 156.425C210.519 156.184 210.762 155.987 211.039 155.846C211.315 155.706 211.618 155.625 211.927 155.61C213.787 155.563 215.77 158.277 216.317 159.845C216.353 159.946 216.62 161.117 216.751 161.764C216.941 161.17 217.119 160.54 217.345 159.934C217.939 158.152 218.61 156.406 219.263 154.642C219.465 154.101 219.655 153.561 219.857 153.026C219.602 153.026 216.59 152.711 215.378 152.016C214.303 151.422 213.103 150.306 212.937 149.005C212.888 148.699 212.904 148.387 212.984 148.088C213.064 147.789 213.205 147.51 213.4 147.269C213.594 147.029 213.837 146.831 214.112 146.69C214.387 146.549 214.689 146.468 214.998 146.451C216.863 146.403 218.847 149.118 219.394 150.686C219.435 150.805 219.816 152.468 219.893 152.925C220.321 151.737 220.742 150.549 221.081 149.361C221.583 147.757 221.98 146.122 222.269 144.467C222.15 144.467 219.002 144.17 217.766 143.457C216.685 142.863 215.485 141.746 215.325 140.445C215.276 140.14 215.292 139.827 215.372 139.528C215.452 139.23 215.593 138.951 215.788 138.71C215.982 138.469 216.225 138.272 216.5 138.131C216.775 137.99 217.077 137.908 217.386 137.891C219.245 137.85 221.229 140.558 221.776 142.126C221.811 142.233 222.103 143.516 222.227 144.128H222.334C222.579 142.455 222.675 140.763 222.619 139.073C222.619 138.141 222.53 137.256 222.441 136.388C221.847 136.388 219.15 136.388 217.962 135.877C216.774 135.367 215.509 134.428 215.2 133.151C215.118 132.852 215.1 132.539 215.147 132.232C215.194 131.925 215.305 131.632 215.473 131.371C215.641 131.11 215.863 130.888 216.123 130.719C216.383 130.55 216.676 130.437 216.982 130.389C218.83 130.139 221.099 132.616 221.817 134.119C221.853 134.202 222.162 135.076 222.37 135.711C222.328 135.325 222.287 134.921 222.233 134.553C222.049 133.157 221.788 131.886 221.55 130.769C221.408 130.134 221.271 129.581 221.134 129.029C220.54 128.732 218.212 127.508 217.41 126.516C216.608 125.524 215.907 124.104 216.222 122.827C216.29 122.523 216.421 122.236 216.608 121.987C216.795 121.737 217.033 121.53 217.306 121.379C217.579 121.228 217.88 121.136 218.191 121.11C218.502 121.085 218.815 121.125 219.109 121.229Z" fill="#92E3A9"/>
<path d="M252.777 149.937C251.321 149.878 248.411 148.387 248.411 148.381C248.411 148.375 249.973 146.766 250.086 146.676C251.387 145.637 254.511 144.401 256.061 145.429C256.314 145.608 256.527 145.838 256.685 146.104C256.843 146.37 256.944 146.666 256.98 146.974C257.017 147.281 256.988 147.593 256.896 147.888C256.805 148.184 256.652 148.457 256.448 148.69C255.616 149.688 254.018 149.985 252.777 149.937Z" fill="#92E3A9"/>
<g opacity="0.5">
<path d="M222.714 136.145C222.679 136.145 223.124 133.929 223.172 133.769C223.683 132.189 225.607 129.433 227.466 129.439C227.776 129.447 228.079 129.521 228.358 129.655C228.637 129.789 228.884 129.98 229.084 130.216C229.284 130.452 229.432 130.727 229.519 131.024C229.606 131.321 229.629 131.633 229.587 131.939C229.45 133.252 228.274 134.363 227.211 135.01C225.964 135.788 222.714 136.145 222.714 136.145Z" fill="white"/>
<path d="M219.109 121.229C220.861 121.859 221.734 125.102 221.675 126.766C221.675 126.908 221.342 129.142 221.312 129.142H221.277C221.413 129.652 221.562 130.205 221.71 130.805C221.972 131.921 222.257 133.181 222.477 134.583C222.732 136.086 222.898 137.604 222.976 139.127C223.07 140.831 223.013 142.541 222.803 144.235C222.8 144.255 222.8 144.275 222.803 144.294C223.035 143.801 223.718 142.435 223.784 142.334C224.698 140.944 227.276 138.77 229.076 139.293C229.371 139.384 229.644 139.536 229.876 139.739C230.109 139.942 230.296 140.191 230.426 140.471C230.556 140.751 230.625 141.056 230.63 141.364C230.635 141.673 230.575 141.979 230.454 142.263C229.979 143.487 228.553 144.253 227.359 144.591C226.011 144.978 223.005 144.52 222.768 144.485C222.514 146.202 222.145 147.901 221.663 149.569C221.386 150.543 221.085 151.518 220.76 152.492C220.968 152.07 221.164 151.696 221.194 151.642C222.108 150.252 224.686 148.078 226.486 148.595C226.782 148.685 227.055 148.837 227.288 149.039C227.521 149.242 227.709 149.492 227.839 149.772C227.969 150.052 228.038 150.357 228.043 150.666C228.047 150.975 227.986 151.281 227.864 151.565C227.389 152.795 225.964 153.555 224.77 153.899C223.576 154.244 220.986 153.899 220.309 153.81C220.184 154.179 220.059 154.553 219.928 154.921C219.334 156.703 218.693 158.485 218.146 160.231C217.95 160.825 217.778 161.467 217.606 162.085C217.796 161.711 217.956 161.396 217.986 161.354C218.895 159.964 221.479 157.79 223.273 158.307C223.568 158.398 223.84 158.55 224.073 158.753C224.306 158.956 224.493 159.205 224.624 159.485C224.754 159.765 224.824 160.069 224.83 160.377C224.836 160.686 224.777 160.992 224.657 161.277C224.182 162.501 222.75 163.267 221.556 163.605C220.362 163.944 218.028 163.647 217.22 163.534C217.059 164.176 216.905 164.811 216.78 165.435C216.703 165.863 216.602 166.272 216.549 166.706C216.495 167.14 216.43 167.561 216.37 167.977C216.287 168.791 216.192 169.635 216.133 170.43C216.085 170.983 216.05 171.512 216.014 172.04C216.198 171.446 216.608 170.223 216.638 170.122C217.297 168.816 218.279 167.7 219.489 166.878C219.555 166.73 219.637 166.588 219.732 166.457C219.901 166.197 220.122 165.976 220.381 165.808C220.64 165.64 220.932 165.528 221.237 165.48C221.543 165.432 221.855 165.448 222.153 165.529C222.452 165.609 222.73 165.751 222.97 165.946C224.383 167.134 224.027 170.508 223.38 172.04C223.344 172.129 222.815 173.062 222.477 173.644C222.732 173.335 222.97 173.05 223.237 172.705C223.754 172.076 224.288 171.458 224.859 170.793L225.732 169.848C226.017 169.522 226.361 169.219 226.676 168.904C227.419 168.185 228.209 167.49 229.023 166.807C228.464 166.356 226.522 164.71 225.964 163.594C225.405 162.477 225.007 160.915 225.589 159.738C225.717 159.456 225.902 159.203 226.134 158.997C226.365 158.791 226.637 158.637 226.933 158.543C227.228 158.449 227.54 158.419 227.848 158.454C228.156 158.489 228.453 158.589 228.72 158.746C230.294 159.733 230.454 163.089 230.044 164.686C230.044 164.787 229.593 165.91 229.349 166.522C229.842 166.118 230.329 165.708 230.84 165.334C232.313 164.193 233.84 163.089 235.355 161.978L236.739 160.95C236.543 160.79 234.19 158.889 233.561 157.642C233.008 156.531 232.604 154.963 233.187 153.781C233.315 153.499 233.5 153.247 233.732 153.041C233.964 152.836 234.236 152.681 234.531 152.588C234.826 152.494 235.138 152.464 235.445 152.499C235.753 152.533 236.05 152.632 236.317 152.789C237.891 153.781 238.051 157.137 237.642 158.729C237.612 158.853 237 160.469 236.822 160.873C237.838 160.113 238.841 159.352 239.792 158.562C241.093 157.5 242.323 156.353 243.475 155.129C243.386 155.058 240.92 153.086 240.279 151.803C239.721 150.692 239.323 149.124 239.905 147.948C240.031 147.665 240.216 147.413 240.447 147.207C240.678 147.001 240.95 146.846 241.245 146.752C241.54 146.659 241.851 146.628 242.159 146.663C242.466 146.698 242.763 146.798 243.029 146.956C244.609 147.942 244.77 151.298 244.36 152.896C244.33 152.997 243.867 154.232 243.629 154.814L243.724 154.868C244.851 153.606 245.863 152.246 246.748 150.805C247.241 150.021 247.674 149.242 248.078 148.47C247.579 148.15 245.328 146.688 244.621 145.572C243.914 144.455 243.38 143.017 243.825 141.782C243.921 141.491 244.077 141.224 244.282 140.996C244.487 140.769 244.737 140.587 245.017 140.462C245.296 140.337 245.599 140.271 245.905 140.269C246.211 140.267 246.514 140.329 246.795 140.451C248.476 141.259 248.999 144.58 248.767 146.225C248.767 146.314 248.53 147.211 248.357 147.864C248.53 147.514 248.72 147.158 248.88 146.819C249.474 145.548 249.979 144.348 250.395 143.255C250.632 142.661 250.828 142.067 250.989 141.574C250.662 140.98 249.391 138.693 249.266 137.416C249.141 136.139 249.343 134.571 250.312 133.68C250.532 133.463 250.796 133.295 251.086 133.188C251.376 133.08 251.686 133.034 251.994 133.054C252.303 133.073 252.604 133.158 252.878 133.301C253.152 133.445 253.393 133.645 253.585 133.888C254.701 135.379 253.638 138.562 252.676 139.923C252.593 140.035 251.078 141.705 251.06 141.705V141.669C250.894 142.174 250.716 142.714 250.502 143.297C250.11 144.372 249.646 145.589 249.064 146.861C248.444 148.254 247.744 149.611 246.967 150.924C246.102 152.395 245.108 153.786 243.997 155.082L243.956 155.129C244.419 154.838 245.738 154.084 245.851 154.036C247.383 153.383 250.721 153.008 251.945 154.416C252.141 154.655 252.285 154.933 252.367 155.231C252.449 155.529 252.468 155.84 252.422 156.146C252.376 156.452 252.267 156.744 252.101 157.005C251.934 157.266 251.716 157.489 251.458 157.659C250.383 158.42 248.767 158.253 247.585 157.891C246.249 157.469 244.021 155.432 243.813 155.272C242.655 156.564 241.411 157.776 240.089 158.901C239.317 159.566 238.527 160.208 237.713 160.837C238.123 160.606 238.491 160.398 238.544 160.374C240.071 159.721 243.409 159.346 244.633 160.754C244.83 160.993 244.974 161.27 245.057 161.568C245.14 161.866 245.159 162.179 245.113 162.484C245.067 162.79 244.957 163.083 244.79 163.344C244.624 163.605 244.404 163.827 244.146 163.997C243.077 164.758 241.461 164.591 240.279 164.229C239.097 163.867 237.119 162.156 236.608 161.699L235.675 162.417C234.179 163.564 232.705 164.698 231.25 165.857C230.745 166.267 230.264 166.688 229.777 167.104C230.145 166.896 230.448 166.724 230.502 166.706C232.028 166.047 235.367 165.678 236.59 167.08C236.788 167.319 236.933 167.596 237.017 167.894C237.1 168.192 237.119 168.505 237.073 168.811C237.027 169.117 236.917 169.41 236.75 169.671C236.583 169.932 236.362 170.154 236.103 170.324C235.028 171.084 233.418 170.918 232.236 170.561C231.054 170.205 229.266 168.648 228.672 168.108C228.191 168.553 227.704 168.993 227.258 169.45C226.956 169.765 226.664 170.044 226.367 170.383C226.07 170.722 225.773 171.024 225.512 171.345C224.995 171.975 224.455 172.628 223.962 173.258C223.617 173.692 223.296 174.113 222.976 174.535C223.469 174.125 224.467 173.347 224.556 173.282C225.964 172.403 229.207 171.529 230.632 172.729C230.863 172.936 231.047 173.19 231.173 173.473C231.299 173.756 231.364 174.062 231.364 174.372C231.364 174.681 231.299 174.988 231.173 175.271C231.047 175.554 230.863 175.807 230.632 176.014C229.688 176.923 228.072 177.024 226.849 176.834C225.494 176.62 223.047 175.052 222.744 174.826C222.209 175.527 221.699 176.216 221.223 176.875C219.578 179.15 218.295 181.105 217.416 182.489L217.327 182.625L216.186 182.073C216.246 181.984 216.305 181.901 216.364 181.806C217.285 180.428 218.628 178.479 220.338 176.216C220.879 175.503 221.467 174.749 222.079 173.977C221.442 173.284 220.847 172.554 220.297 171.791C218.984 172.302 216.258 172.325 215.907 172.325C215.854 173.204 215.806 174.06 215.77 174.868C215.652 177.677 215.664 180.018 215.693 181.651V181.847L214.44 181.253C214.44 179.632 214.505 177.428 214.672 174.832C214.725 173.935 214.802 172.979 214.891 172.005C214.541 171.915 211.708 171.185 210.638 170.329C209.67 169.557 208.648 168.298 208.684 166.985C208.681 166.676 208.743 166.369 208.866 166.085C208.99 165.801 209.172 165.546 209.401 165.338C209.63 165.129 209.9 164.971 210.194 164.874C210.488 164.777 210.8 164.744 211.108 164.776C212.955 165.013 214.499 167.995 214.808 169.629C214.808 169.724 214.903 170.817 214.939 171.47C214.98 171.066 215.01 170.68 215.052 170.282C215.135 169.468 215.242 168.654 215.355 167.781C215.42 167.365 215.491 166.944 215.557 166.516C215.622 166.088 215.735 165.649 215.824 165.209C216.05 164.199 216.323 163.184 216.626 162.168C215.913 162.091 213.389 161.794 212.302 161.176C211.215 160.558 210.027 159.465 209.866 158.164C209.815 157.859 209.83 157.546 209.909 157.246C209.988 156.946 210.129 156.666 210.324 156.425C210.519 156.184 210.762 155.987 211.039 155.846C211.315 155.706 211.618 155.625 211.927 155.61C213.787 155.563 215.77 158.277 216.317 159.845C216.353 159.946 216.62 161.117 216.751 161.764C216.941 161.17 217.119 160.54 217.345 159.934C217.939 158.152 218.61 156.406 219.263 154.642C219.465 154.101 219.655 153.561 219.857 153.026C219.602 153.026 216.59 152.711 215.378 152.016C214.303 151.422 213.103 150.306 212.937 149.005C212.888 148.699 212.904 148.387 212.984 148.088C213.064 147.789 213.205 147.51 213.4 147.269C213.594 147.029 213.837 146.831 214.112 146.69C214.387 146.549 214.689 146.468 214.998 146.451C216.863 146.403 218.847 149.118 219.394 150.686C219.435 150.805 219.816 152.468 219.893 152.925C220.321 151.737 220.742 150.549 221.081 149.361C221.583 147.757 221.98 146.122 222.269 144.467C222.15 144.467 219.002 144.17 217.766 143.457C216.685 142.863 215.485 141.746 215.325 140.445C215.276 140.14 215.292 139.827 215.372 139.528C215.452 139.23 215.593 138.951 215.788 138.71C215.982 138.469 216.225 138.272 216.5 138.131C216.775 137.99 217.077 137.908 217.386 137.891C219.245 137.85 221.229 140.558 221.776 142.126C221.811 142.233 222.103 143.516 222.227 144.128H222.334C222.579 142.455 222.675 140.763 222.619 139.073C222.619 138.141 222.53 137.256 222.441 136.388C221.847 136.388 219.15 136.388 217.962 135.877C216.774 135.367 215.509 134.428 215.2 133.151C215.118 132.852 215.1 132.539 215.147 132.232C215.194 131.925 215.305 131.632 215.473 131.371C215.641 131.11 215.863 130.888 216.123 130.719C216.383 130.55 216.676 130.437 216.982 130.389C218.83 130.139 221.099 132.616 221.817 134.119C221.853 134.202 222.162 135.076 222.37 135.711C222.328 135.325 222.287 134.921 222.233 134.553C222.049 133.157 221.788 131.886 221.55 130.769C221.408 130.134 221.271 129.581 221.134 129.029C220.54 128.732 218.212 127.508 217.41 126.516C216.608 125.524 215.907 124.104 216.222 122.827C216.29 122.523 216.421 122.236 216.608 121.987C216.795 121.737 217.033 121.53 217.306 121.379C217.579 121.228 217.88 121.136 218.191 121.11C218.502 121.085 218.815 121.125 219.109 121.229Z" fill="white"/>
<path d="M252.777 149.937C251.321 149.878 248.411 148.387 248.411 148.381C248.411 148.375 249.973 146.766 250.086 146.676C251.387 145.637 254.511 144.401 256.061 145.429C256.314 145.608 256.527 145.838 256.685 146.104C256.843 146.37 256.944 146.666 256.98 146.974C257.017 147.281 256.988 147.593 256.896 147.888C256.805 148.184 256.652 148.457 256.448 148.69C255.616 149.688 254.018 149.985 252.777 149.937Z" fill="white"/>
</g>
<path d="M235.782 186.385C235.782 186.385 226.95 165.09 222.007 166.017C217.065 166.944 230.472 199.958 230.472 199.958C230.472 199.958 214.933 170.644 204.336 170.644C193.739 170.644 208.221 203.047 221.639 213.846C221.639 213.846 200.451 191.013 188.09 195.949C175.729 200.885 212.812 224.027 212.812 224.027C212.812 224.027 191.268 217.238 193.739 222.483C196.21 227.728 202.922 228.654 202.922 228.654L178.568 229.89H263.332L244.259 228.037C244.259 228.037 264.039 218.164 258.74 214.155C253.442 210.145 241.788 218.782 241.788 218.782C241.788 218.782 261.918 196.566 258.034 188.233C254.149 179.899 236.84 203.356 236.84 203.356C236.84 203.356 250.971 173.424 248.126 168.179C245.28 162.934 235.782 186.385 235.782 186.385Z" fill="#92E3A9"/>
<path opacity="0.4" d="M235.782 186.385C235.782 186.385 226.95 165.09 222.007 166.017C217.065 166.944 230.472 199.958 230.472 199.958C230.472 199.958 214.933 170.644 204.336 170.644C193.739 170.644 208.221 203.047 221.639 213.846C221.639 213.846 200.451 191.013 188.09 195.949C175.729 200.885 212.812 224.027 212.812 224.027C212.812 224.027 191.268 217.238 193.739 222.483C196.21 227.728 202.922 228.654 202.922 228.654L178.568 229.89H263.332L244.259 228.037C244.259 228.037 264.039 218.164 258.74 214.155C253.442 210.145 241.788 218.782 241.788 218.782C241.788 218.782 261.918 196.566 258.034 188.233C254.149 179.899 236.84 203.356 236.84 203.356C236.84 203.356 250.971 173.424 248.126 168.179C245.28 162.934 235.782 186.385 235.782 186.385Z" fill="white"/>
<path d="M238.61 187.502C230.834 210.46 230.834 226.706 230.834 226.706C230.834 226.706 240.018 227.056 249.557 219.994" stroke="#263238" stroke-linecap="round" stroke-linejoin="round"/>
<path d="M234.725 199.869C233.121 193.004 230.995 186.273 228.363 179.733" stroke="#263238" stroke-linecap="round" stroke-linejoin="round"/>
<path d="M211.767 186.445L231.541 215.759C231.541 215.759 244.966 204.473 249.557 198.099" stroke="#263238" stroke-linecap="round" stroke-linejoin="round"/>
<path d="M231.191 222.827C231.191 222.827 210.353 212.937 201.877 207.306" stroke="#263238" stroke-linecap="round" stroke-linejoin="round"/>
<path d="M212.486 64.746H149.023C146.425 64.746 144.318 66.8523 144.318 69.4505V225.185C144.318 227.784 146.425 229.89 149.023 229.89H212.486C215.084 229.89 217.19 227.784 217.19 225.185V69.4505C217.19 66.8523 215.084 64.746 212.486 64.746Z" fill="white" stroke="#263238" stroke-linecap="round" stroke-linejoin="round"/>
<path d="M214.755 93.656C214.498 93.656 214.252 93.554 214.07 93.3724C213.889 93.1908 213.786 92.9445 213.786 92.6877V79.7089C213.806 79.4644 213.916 79.2361 214.096 79.0697C214.276 78.9032 214.512 78.8107 214.758 78.8107C215.003 78.8107 215.239 78.9032 215.419 79.0697C215.599 79.2361 215.71 79.4644 215.729 79.7089V92.664C215.731 92.7934 215.708 92.922 215.66 93.0423C215.612 93.1625 215.541 93.272 215.45 93.3644C215.359 93.4567 215.251 93.5301 215.132 93.5801C215.012 93.6302 214.884 93.656 214.755 93.656Z" fill="#263238"/>
<path d="M214.755 105.679C214.498 105.679 214.252 105.577 214.07 105.395C213.889 105.213 213.786 104.967 213.786 104.71V97.4576C213.806 97.2131 213.916 96.9849 214.096 96.8184C214.276 96.6519 214.512 96.5594 214.758 96.5594C215.003 96.5594 215.239 96.6519 215.419 96.8184C215.599 96.9849 215.71 97.2131 215.729 97.4576V104.71C215.727 104.968 215.624 105.214 215.441 105.395C215.259 105.577 215.012 105.679 214.755 105.679Z" fill="#263238"/>
<path d="M206.991 64.746H143.528C140.93 64.746 138.824 66.8523 138.824 69.4505V225.185C138.824 227.784 140.93 229.89 143.528 229.89H206.991C209.589 229.89 211.696 227.784 211.696 225.185V69.4505C211.696 66.8523 209.589 64.746 206.991 64.746Z" fill="#263238" stroke="#263238" stroke-linecap="round" stroke-linejoin="round"/>
<path d="M206.843 75.7409H143.677V217.386H206.843V75.7409Z" fill="#92E3A9"/>
<path d="M165.88 71.2147H182.697" stroke="white" stroke-width="3" stroke-linecap="round" stroke-linejoin="round"/>
<path d="M172.997 222.4C172.997 223.558 172.272 224.496 171.375 224.496C170.478 224.496 169.759 223.558 169.759 222.4C169.759 221.241 170.484 220.297 171.375 220.297C172.266 220.297 172.997 221.235 172.997 222.4Z" fill="white"/>
<path d="M175.26 110.989C181.309 110.989 186.213 105.271 186.213 98.2179C186.213 91.1647 181.309 85.4469 175.26 85.4469C169.21 85.4469 164.306 91.1647 164.306 98.2179C164.306 105.271 169.21 110.989 175.26 110.989Z" fill="white"/>
<path d="M175.26 98.0575C177.556 98.0575 179.418 95.8848 179.418 93.2045C179.418 90.5243 177.556 88.3516 175.26 88.3516C172.963 88.3516 171.102 90.5243 171.102 93.2045C171.102 95.8848 172.963 98.0575 175.26 98.0575Z" fill="#263238" stroke="#263238" stroke-linecap="round" stroke-linejoin="round"/>
<path d="M175.26 99.3465C171.102 99.3465 167.698 102.536 167.698 106.474C167.701 106.841 167.735 107.207 167.799 107.567C168.721 108.644 169.866 109.508 171.154 110.1C172.441 110.693 173.842 111 175.26 111C176.677 111 178.078 110.693 179.366 110.1C180.654 109.508 181.798 108.644 182.72 107.567C182.779 107.206 182.811 106.841 182.815 106.474C182.815 102.536 179.43 99.3465 175.26 99.3465Z" fill="#263238" stroke="#263238" stroke-linecap="round" stroke-linejoin="round"/>
<path d="M188.577 153.846H161.942C161.237 153.818 160.572 153.512 160.093 152.994C159.614 152.476 159.361 151.789 159.388 151.084V134.642C159.388 125.168 166.516 117.458 175.26 117.458C184.003 117.458 191.125 125.18 191.125 134.642V151.072C191.141 151.422 191.087 151.771 190.967 152.099C190.847 152.428 190.663 152.73 190.427 152.987C190.19 153.245 189.905 153.454 189.587 153.601C189.27 153.748 188.927 153.831 188.577 153.846ZM164.49 148.322H186.023V134.66C186.023 128.233 181.194 123 175.26 123C169.326 123 164.49 128.233 164.49 134.66V148.322Z" fill="#263238"/>
<path d="M193.751 142.625H156.768V177.612H193.751V142.625Z" fill="white"/>
<path d="M180.647 166.712L177.903 160.113C178.51 159.654 179.001 159.059 179.336 158.376C179.671 157.693 179.842 156.941 179.833 156.18C179.833 153.549 177.867 151.428 175.438 151.428C173.008 151.428 171.048 153.555 171.048 156.18C171.039 156.941 171.208 157.693 171.543 158.376C171.877 159.059 172.367 159.654 172.973 160.113L170.234 166.712H180.647Z" fill="#263238" stroke="#263238" stroke-linecap="round" stroke-linejoin="round"/>
<path d="M163.991 209.052C164.048 209.094 164.117 209.117 164.188 209.118C164.238 209.118 164.288 209.105 164.332 209.081C164.377 209.057 164.415 209.023 164.443 208.981L206.843 151.31V150.217L163.944 208.601C163.917 208.634 163.898 208.671 163.886 208.712C163.874 208.752 163.87 208.795 163.874 208.837C163.879 208.878 163.891 208.919 163.911 208.956C163.931 208.993 163.959 209.026 163.991 209.052Z" fill="white"/>
<path d="M198.313 96.5191C198.288 96.5533 198.269 96.5922 198.259 96.6335C198.249 96.6748 198.247 96.7177 198.254 96.7597C198.261 96.8017 198.276 96.842 198.298 96.8782C198.32 96.9144 198.35 96.9458 198.384 96.9705C198.454 97.02 198.54 97.0403 198.624 97.027C198.709 97.0136 198.785 96.9678 198.836 96.8992L206.843 86.0112V84.942L198.313 96.5191Z" fill="white"/>
<path d="M143.677 171.939L196.02 100.76C196.07 100.691 196.091 100.604 196.078 100.52C196.064 100.435 196.018 100.359 195.949 100.309C195.879 100.258 195.793 100.238 195.708 100.251C195.624 100.264 195.548 100.311 195.497 100.38L143.7 170.846L143.677 171.939Z" fill="white"/>
<path d="M159.073 216.073C159.124 216.073 159.173 216.06 159.219 216.038C159.264 216.015 159.303 215.983 159.335 215.943L162.305 211.927C162.33 211.893 162.348 211.854 162.358 211.813C162.368 211.772 162.37 211.729 162.363 211.687C162.357 211.645 162.342 211.604 162.32 211.568C162.297 211.532 162.268 211.501 162.233 211.476C162.164 211.426 162.077 211.406 161.993 211.419C161.909 211.433 161.833 211.479 161.782 211.547L158.812 215.557C158.786 215.591 158.768 215.629 158.757 215.67C158.747 215.711 158.744 215.754 158.75 215.796C158.756 215.838 158.771 215.878 158.792 215.915C158.814 215.951 158.843 215.983 158.877 216.008C158.933 216.052 159.002 216.075 159.073 216.073Z" fill="white"/>
<path d="M206.843 162.857L172.034 210.205C171.999 210.253 171.978 210.31 171.973 210.369C171.968 210.428 171.98 210.488 172.007 210.541C172.034 210.594 172.076 210.638 172.127 210.669C172.177 210.7 172.236 210.716 172.296 210.716C172.346 210.717 172.397 210.705 172.442 210.682C172.488 210.66 172.527 210.626 172.557 210.585L206.843 163.944V162.857Z" fill="white"/>
<path d="M84.5915 96.3112C85.1805 95.0062 85.4649 93.5843 85.4231 92.1532C85.4231 89.498 82.2096 87.9595 78.4317 87.5378C74.6539 87.116 72.9788 88.6545 73.5372 89.6346C74.1174 90.4429 74.8257 91.1512 75.634 91.7314C75.634 91.7314 71.8562 89.6346 69.3376 91.3156C66.8191 92.9966 70.4603 92.2957 69.7594 93.9708C69.0584 95.6459 65.144 94.9509 64.1639 99.4237C63.1838 103.897 65.9815 108.375 63.4629 110.336C60.9444 112.296 53.365 109.635 51.1553 114.529C48.9456 119.424 52.0819 121.598 46.7715 124.675C41.4612 127.752 37.5883 130.757 39.1268 138.307C40.6652 145.857 45.7024 148.5 55.634 145.833C65.5657 143.166 64.8648 137.161 68.108 130.983C71.3513 124.805 76.3646 126.088 77.9031 122.59C79.4415 119.091 77.4813 114.897 77.6239 111.678C77.7665 108.458 80.98 107.763 82.2393 103.956C83.4986 100.148 84.5915 96.3112 84.5915 96.3112Z" fill="#263238" stroke="#263238" stroke-linecap="round" stroke-linejoin="round"/>
<path d="M40.2851 138.164C40.0246 138.69 39.8923 139.27 39.899 139.857" stroke="white" stroke-width="0.5" stroke-linecap="round" stroke-linejoin="round"/>
<path d="M79.2217 93.5372C79.2217 93.5372 77.4754 91.5176 80.8374 92.4561C85.0726 93.6441 80.1009 98.5446 78.1882 99.5307C74.3509 101.497 69.2782 100.867 66.3082 104.443C63.6114 107.674 67.2526 111.042 65.637 113.603C64.0213 116.163 57.5526 114.678 55.4023 117.761C53.2521 120.843 59.3049 127.461 53.1095 131.096C48.6307 133.727 43.7243 134.737 41.3542 136.822" stroke="white" stroke-width="0.5" stroke-linecap="round" stroke-linejoin="round"/>
<path d="M69.1772 105.488C68.8101 106.347 68.6987 107.294 68.8565 108.215C69.3911 110.502 72.4917 114.814 69.6643 117.238C66.8369 119.661 61.9839 119.525 61.182 122.364C60.3801 125.203 61.9898 133.003 59.299 136.62C56.6082 140.237 51.3513 139.988 48.5239 142.412C45.6964 144.835 46.1003 146.183 46.1003 146.183" stroke="white" stroke-width="0.5" stroke-linecap="round" stroke-linejoin="round"/>
<path d="M70.6028 102.827C70.358 103.173 70.132 103.532 69.9257 103.903" stroke="white" stroke-width="0.5" stroke-linecap="round" stroke-linejoin="round"/>
<path d="M86.4032 137.951L87.0863 143.297C87.0863 143.297 90.6503 146.861 93.2699 149.064C95.8894 151.268 102.602 155.931 102.602 155.931L99.198 156.899C99.198 156.899 88.0724 150.306 85.8746 149.771C83.6768 149.237 82.0314 146.065 81.3483 145.102C80.6652 144.14 84.6153 136.988 86.4032 137.951Z" fill="white" stroke="#263238" stroke-linecap="round" stroke-linejoin="round"/>
<path d="M93.1986 224.93C93.1986 224.93 96.5606 227.769 97.9506 228.72C99.3405 229.67 100.962 230.098 100.707 230.615C100.451 231.131 99.7563 231.648 96.4834 231.209C93.2104 230.769 92.266 229.658 91.6601 229.486C91.0542 229.314 89.593 229.747 88.4763 229.058C87.3595 228.369 89.1297 224.265 89.1297 224.265C89.6202 224.838 90.2978 225.22 91.0425 225.341C91.7872 225.463 92.551 225.317 93.1986 224.93Z" fill="white" stroke="#263238" stroke-linecap="round" stroke-linejoin="round"/>
<path d="M100.695 230.615C100.697 230.587 100.697 230.559 100.695 230.531C98.8052 230.705 96.8997 230.526 95.0756 230.003C92.961 229.504 92.3373 228.381 90.3236 228.381C89.5334 228.388 88.7478 228.26 88.0011 228.001C87.9794 228.199 88.0065 228.4 88.0801 228.585C88.1536 228.77 88.2712 228.935 88.4228 229.064C89.5395 229.753 91.0067 229.32 91.6066 229.492C92.2066 229.664 93.157 230.787 96.4299 231.215C99.7029 231.642 100.433 231.131 100.695 230.615Z" fill="white" stroke="#263238" stroke-linecap="round" stroke-linejoin="round"/>
<path d="M75.5984 110.128C75.5984 110.128 76.2458 114.488 75.4142 116.246C74.5826 118.004 71.9809 118.194 69.7594 118.568C67.5378 118.943 62.4354 120.885 62.9878 125.892C63.5402 130.9 69.9435 141.746 69.9435 144.805C69.9435 147.864 67.9952 149.439 65.8627 155.373C63.7303 161.307 64.0094 172.343 64.6747 179.483C65.1623 184.195 66.0931 188.851 67.4546 193.389C67.4546 193.389 62.1086 202.013 59.7326 205.72C57.3566 209.427 49.0406 225.566 49.0406 225.566C49.0406 225.566 49.0406 226.118 50.3356 226.492C51.2466 226.714 52.1891 226.776 53.1214 226.676C53.1214 226.676 69.0644 207.484 72.0344 204.241C75.0044 200.998 77.7843 195.331 78.1526 192.741C78.5209 190.151 78.0635 174.291 78.0635 174.291C78.0635 174.291 81.3958 182.263 84.0035 186.344C85.5851 188.841 87.0364 191.418 88.3516 194.066C87.9864 197.422 87.9864 200.808 88.3516 204.164C88.999 208.797 88.4525 223.683 89.1 224.888C89.7475 226.094 92.2601 225.589 92.8184 225.037C93.3768 224.484 93.6382 220.879 93.6382 220.879C93.6382 220.879 94.749 209.593 95.4202 204.283C96.0914 198.972 97.2022 194.452 96.8161 193.246C96.43 192.04 94.1253 179.15 92.3611 173.05C90.5969 166.95 85.2331 155.527 84.0451 152.563C82.8571 149.599 82.1858 146.902 82.3759 145.976C82.566 145.049 86.1775 139.489 87.1279 138.004C87.6697 136.997 87.9686 135.878 88.0006 134.735C88.0325 133.592 87.7968 132.458 87.3121 131.423C86.2013 129.011 87.3121 125.762 87.1279 123.819C86.9438 121.877 84.0688 121.033 82.5838 120.297C81.0988 119.56 80.5405 117.885 80.5405 116.495C80.6312 115.324 80.9141 114.176 81.378 113.098C81.378 113.098 76.8042 110.128 75.5984 110.128Z" fill="white" stroke="#263238" stroke-linecap="round" stroke-linejoin="round"/>
<path d="M86.8368 129.961C86.3484 128.72 85.9416 127.448 85.6191 126.154" stroke="#263238" stroke-linecap="round" stroke-linejoin="round"/>
<path d="M74.7964 140.285C74.7964 140.285 76.4715 140.653 79.8276 138.978" stroke="#263238" stroke-linecap="round" stroke-linejoin="round"/>
<path d="M92.3789 172.991C90.6979 167.146 85.7142 156.471 84.2233 152.949C77.0953 155.622 70.4306 153.341 67.3002 151.868C66.8488 152.854 66.3617 153.995 65.8627 155.373C63.7303 161.313 64.0094 172.343 64.6747 179.483C65.1623 184.195 66.0931 188.851 67.4546 193.389C67.4546 193.389 62.1086 202.013 59.7326 205.72C57.3566 209.427 49.0406 225.566 49.0406 225.566C49.0406 225.566 49.0406 226.118 50.3356 226.492C51.2466 226.714 52.1891 226.776 53.1214 226.676C53.1214 226.676 69.0644 207.484 72.0344 204.241C75.0044 200.998 77.7843 195.331 78.1526 192.741C78.5209 190.151 78.0635 174.291 78.0635 174.291C78.0635 174.291 81.3958 182.263 84.0035 186.344C85.5851 188.841 87.0364 191.418 88.3516 194.066C87.9864 197.422 87.9864 200.808 88.3516 204.164C88.999 208.797 88.4525 223.683 89.1 224.888C89.7475 226.094 92.2601 225.589 92.8184 225.037C93.3768 224.484 93.6382 220.879 93.6382 220.879C93.6382 220.879 94.749 209.593 95.4202 204.283C96.0914 198.972 97.2022 194.452 96.8161 193.246C96.43 192.04 94.1431 179.109 92.3789 172.991Z" fill="#263238" stroke="#263238" stroke-linecap="round" stroke-linejoin="round"/>
<path d="M128.696 167.104V165.892H129.712V156.376H128.696H118.669H117.654V165.892H118.669V167.104H117.648V169.314H121.562V168.571H125.803V169.314H129.718V167.104H128.696Z" fill="#92E3A9" stroke="#263238" stroke-linecap="round" stroke-linejoin="round"/>
<path d="M63.8906 153.531H133.84C134.12 153.531 134.389 153.643 134.588 153.841C134.786 154.039 134.897 154.308 134.897 154.589V156.715C134.897 156.995 134.786 157.264 134.588 157.463C134.389 157.661 134.12 157.772 133.84 157.772H63.8906V153.525V153.531Z" fill="#92E3A9" stroke="#263238" stroke-linecap="round" stroke-linejoin="round"/>
<path d="M114.096 152.896H109.837C109.512 152.896 109.248 153.159 109.248 153.484V157.826C109.248 158.151 109.512 158.414 109.837 158.414H114.096C114.42 158.414 114.684 158.151 114.684 157.826V153.484C114.684 153.159 114.42 152.896 114.096 152.896Z" fill="#92E3A9" stroke="#263238" stroke-linecap="round" stroke-linejoin="round"/>
<path d="M66.0791 157.441C67.0647 151.422 62.9847 145.745 56.9663 144.759C50.9479 143.774 45.2701 147.853 44.2845 153.872C43.2989 159.89 47.3789 165.568 53.3973 166.554C59.4157 167.539 65.0936 163.459 66.0791 157.441Z" fill="#92E3A9" stroke="#263238" stroke-linecap="round" stroke-linejoin="round"/>
<path d="M57.4517 155.628C58.0919 155.321 58.6351 154.844 59.0218 154.249C59.4085 153.654 59.6236 152.964 59.6436 152.254C59.6436 150.086 57.6477 148.328 55.1826 148.328C52.7175 148.328 50.7217 150.11 50.7217 152.254C50.7403 152.964 50.9549 153.655 51.3417 154.25C51.7285 154.846 52.2725 155.323 52.9135 155.628C52.2729 155.936 51.7294 156.414 51.3427 157.01C50.9561 157.606 50.7412 158.297 50.7217 159.008C50.7217 161.176 52.7175 162.934 55.1826 162.934C57.6477 162.934 59.6436 161.152 59.6436 159.008C59.6227 158.298 59.4073 157.607 59.0208 157.011C58.6343 156.415 58.0915 155.937 57.4517 155.628Z" fill="white" stroke="#263238" stroke-linecap="round" stroke-linejoin="round"/>
<path d="M100.422 157.867C100.422 157.867 103.879 159.329 104.948 159.329C106.017 159.329 107.253 158.253 107.864 156.953C108.476 155.652 108.458 155.034 108.096 155.343L107.33 155.937C107.33 155.937 107.924 154.636 107.253 154.79C106.788 154.945 106.402 155.276 106.177 155.711C106.177 155.711 106.1 154.559 105.488 155.117C105.084 155.484 104.723 155.897 104.413 156.347C104.413 156.347 104.336 154.891 103.95 155.272C103.564 155.652 102.115 157.725 102.115 157.725L100.422 157.867Z" fill="white" stroke="#263238" stroke-linecap="round" stroke-linejoin="round"/>
<path d="M104.413 156.335C104.413 156.335 104.182 158.176 103.035 158.485L104.413 156.335Z" fill="white"/>
<path d="M104.413 156.335C104.413 156.335 104.182 158.176 103.035 158.485" stroke="#263238" stroke-linecap="round" stroke-linejoin="round"/>
<path d="M106.177 155.723C106.177 155.723 105.583 158.634 104.645 159.097L106.177 155.723Z" fill="white"/>
<path d="M106.177 155.723C106.177 155.723 105.583 158.634 104.645 159.097" stroke="#263238" stroke-linecap="round" stroke-linejoin="round"/>
<path d="M107.33 155.949C107.024 157.011 106.612 158.04 106.1 159.02L107.33 155.949Z" fill="white"/>
<path d="M107.33 155.949C107.024 157.011 106.612 158.04 106.1 159.02" stroke="#263238" stroke-linecap="round" stroke-linejoin="round"/>
<path d="M82.364 120.119C81.7658 119.715 81.2812 119.164 80.9567 118.519C80.6322 117.874 80.4787 117.157 80.5107 116.436C80.6173 115.284 80.9102 114.156 81.378 113.098C81.378 113.098 76.8339 110.128 75.6281 110.128C75.6281 110.128 76.2755 114.488 75.4439 116.246C75.1714 116.793 74.7269 117.235 74.1787 117.505C75.2769 120.462 76.7652 123.259 78.604 125.821C80.2732 127.918 81.0869 123.499 82.364 120.119Z" fill="white" stroke="#263238" stroke-linecap="round" stroke-linejoin="round"/>
<path d="M68.3397 119.168C67.2062 119.362 66.1332 119.816 65.2054 120.496C64.2776 121.175 63.5205 122.061 62.9937 123.083C61.1642 126.611 53.1689 142.625 53.852 143.582C57.7368 149.046 71.868 152.979 73.3055 154.416C74.7426 155.919 76.3199 157.282 78.0159 158.485C79.4534 159.4 82.3224 159.008 82.8451 158.747C83.3679 158.485 83.7599 157.309 82.8451 157.309C82.4957 157.314 82.1552 157.198 81.8806 156.982C81.606 156.766 81.4139 156.462 81.3364 156.121C81.2057 155.598 82.7739 156.644 83.5579 156.252C84.342 155.86 81.8056 154.428 81.0216 153.775C80.2375 153.121 79.5841 152.213 78.5386 152.213C77.4932 152.213 75.5271 152.213 75.5271 152.213C75.5271 152.213 70.7157 148.726 67.8051 146.13C65.5403 144.086 63.0699 142.283 60.4335 140.748L69.2544 126.237" fill="white"/>
<path d="M68.3397 119.168C67.2062 119.362 66.1332 119.816 65.2054 120.496C64.2776 121.175 63.5205 122.061 62.9937 123.083C61.1642 126.611 53.1689 142.625 53.852 143.582C57.7368 149.046 71.868 152.979 73.3055 154.416C74.7426 155.919 76.3199 157.282 78.0159 158.485C79.4534 159.4 82.3224 159.008 82.8451 158.747C83.3679 158.485 83.7599 157.309 82.8451 157.309C82.4957 157.314 82.1552 157.198 81.8806 156.982C81.606 156.766 81.4139 156.462 81.3364 156.121C81.2057 155.598 82.7739 156.644 83.5579 156.252C84.342 155.86 81.8056 154.428 81.0216 153.775C80.2375 153.121 79.5841 152.213 78.5386 152.213C77.4932 152.213 75.5271 152.213 75.5271 152.213C75.5271 152.213 70.7157 148.726 67.8051 146.13C65.5403 144.086 63.0699 142.283 60.4335 140.748L69.2544 126.237" stroke="#263238" stroke-linecap="round" stroke-linejoin="round"/>
<path d="M81.0157 153.781C80.2316 153.127 79.5782 152.218 78.5328 152.218C77.4873 152.218 75.5212 152.218 75.5212 152.218C75.5212 152.218 70.7098 148.732 67.7992 146.136C65.5344 144.092 63.064 142.289 60.4276 140.754L63.956 134.945C62.1521 133.853 60.0888 133.264 57.9804 133.24C55.6044 138.194 53.4719 143.089 53.8224 143.605C57.7071 149.07 71.8384 153.003 73.2759 154.44C74.7129 155.943 76.2902 157.306 77.9863 158.509C79.4237 159.424 82.2928 159.032 82.8155 158.77C83.3382 158.509 83.7303 157.333 82.8155 157.333C82.466 157.337 82.1255 157.222 81.8509 157.006C81.5763 156.79 81.3842 156.486 81.3067 156.145C81.1761 155.622 82.7442 156.668 83.5283 156.275C84.3124 155.883 81.7998 154.44 81.0157 153.781Z" fill="white" stroke="#263238" stroke-linecap="round" stroke-linejoin="round"/>
<path d="M85.7974 103.73C85.3341 102.804 85.3341 102.061 85.5182 100.76C85.7023 99.4594 84.5916 96.3052 84.5916 96.3052C83.457 98.2654 80.1781 99.4297 78.7288 99.8692C77.1309 100.356 79.4653 101.461 79.2159 102.94C78.9664 104.419 75.7766 105.275 75.7766 105.275C75.7766 105.275 74.844 103.356 73.5491 103.356C72.2542 103.356 71.3335 106.326 72.07 107.9C72.262 108.336 72.5963 108.694 73.0182 108.915C73.4402 109.137 73.9248 109.208 74.3926 109.118C74.3926 109.118 74.3035 111.904 76.0617 112.735C77.9378 113.63 79.895 114.344 81.9067 114.868C83.0175 115.052 84.1282 114.499 84.5916 112.83C84.9539 111.148 85.202 109.443 85.3341 107.728C86.1119 107.219 86.8275 106.621 87.4665 105.946C87.912 105.304 86.2607 104.657 85.7974 103.73Z" fill="white" stroke="#263238" stroke-linecap="round" stroke-linejoin="round"/>
<path d="M83.9916 103.772C83.9916 104.283 83.8252 104.693 83.6233 104.693C83.4213 104.693 83.255 104.283 83.255 103.772C83.255 103.261 83.4213 102.851 83.6233 102.851C83.8252 102.851 83.9916 103.261 83.9916 103.772Z" fill="#263238"/>
<path d="M82.3937 102.239C82.3937 102.239 83.3798 101.129 84.1163 101.378" stroke="#263238" stroke-linecap="round" stroke-linejoin="round"/>
<path d="M84.1163 109.854C83.6712 109.989 83.1987 110.004 82.7455 109.9C82.2924 109.796 81.8742 109.576 81.5324 109.26" stroke="#263238" stroke-linecap="round" stroke-linejoin="round"/>
<path d="M49.0822 225.566C49.0822 225.566 46.8666 230.009 46.9497 230.615C47.0329 231.22 51.4285 234.404 53.4837 235.521C55.539 236.638 59.2574 236.816 58.9961 235.266C58.7347 233.715 55.2063 232.682 54.345 230.353C53.8864 229.149 53.4898 227.921 53.157 226.676C51.7212 226.698 50.3086 226.313 49.0822 225.566Z" fill="white" stroke="#263238" stroke-linecap="round" stroke-linejoin="round"/>
<path d="M59.0079 235.289C57.4265 235.501 55.8172 235.273 54.3569 234.63C51.1671 233.246 48.0783 230.419 47.2289 229.617C47.078 229.937 46.9817 230.28 46.9438 230.632C47.0329 231.226 51.4225 234.422 53.4778 235.539C55.533 236.656 59.2218 236.81 59.0079 235.289Z" fill="white" stroke="#263238" stroke-linecap="round" stroke-linejoin="round"/>
</svg>
