<svg width="24" height="25" viewBox="0 0 24 25" fill="none" xmlns="http://www.w3.org/2000/svg">
<path d="M12 3C12.3978 3 12.7794 3.15804 13.0607 3.43934C13.342 3.72064 13.5 4.10218 13.5 4.5C13.5 4.89782 13.342 5.27936 13.0607 5.56066C12.7794 5.84196 12.3978 6 12 6H7C6.86739 6 6.74021 6.05268 6.64645 6.14645C6.55268 6.24021 6.5 6.36739 6.5 6.5V18.5C6.5 18.6326 6.55268 18.7598 6.64645 18.8536C6.74021 18.9473 6.86739 19 7 19H11.5C11.8978 19 12.2794 19.158 12.5607 19.4393C12.842 19.7206 13 20.1022 13 20.5C13 20.8978 12.842 21.2794 12.5607 21.5607C12.2794 21.842 11.8978 22 11.5 22H7C6.07174 22 5.1815 21.6313 4.52513 20.9749C3.86875 20.3185 3.5 19.4283 3.5 18.5V6.5C3.5 5.57174 3.86875 4.6815 4.52513 4.02513C5.1815 3.36875 6.07174 3 7 3H12ZM18.06 8.61L20.889 11.44C21.1699 11.7213 21.3277 12.1025 21.3277 12.5C21.3277 12.8975 21.1699 13.2787 20.889 13.56L18.061 16.39C17.7796 16.6714 17.398 16.8295 17 16.8295C16.602 16.8295 16.2204 16.6714 15.939 16.39C15.6576 16.1086 15.4995 15.727 15.4995 15.329C15.4995 14.931 15.6576 14.5494 15.939 14.268L16.207 14H12C11.6022 14 11.2206 13.842 10.9393 13.5607C10.658 13.2794 10.5 12.8978 10.5 12.5C10.5 12.1022 10.658 11.7206 10.9393 11.4393C11.2206 11.158 11.6022 11 12 11H16.207L15.939 10.732C15.7997 10.5927 15.6893 10.4273 15.6139 10.2452C15.5386 10.0632 15.4998 9.86815 15.4999 9.67115C15.4999 9.47415 15.5388 9.27909 15.6142 9.0971C15.6896 8.91511 15.8002 8.74977 15.9395 8.6105C16.0788 8.47123 16.2442 8.36077 16.4263 8.28543C16.6083 8.21008 16.8034 8.17133 17.0004 8.17137C17.1974 8.17142 17.3924 8.21027 17.5744 8.2857C17.7564 8.36113 17.9217 8.47167 18.061 8.611L18.06 8.61Z" fill="white"/>
</svg>
