<svg width="24" height="25" viewBox="0 0 24 25" fill="none" xmlns="http://www.w3.org/2000/svg">
<g clip-path="url(#clip0_21_2781)">
<path d="M12 2.5C10.0222 2.5 8.08879 3.08649 6.4443 4.1853C4.79981 5.28412 3.51809 6.8459 2.76121 8.67317C2.00433 10.5004 1.8063 12.5111 2.19215 14.4509C2.578 16.3907 3.53041 18.1725 4.92894 19.5711C6.32746 20.9696 8.10929 21.922 10.0491 22.3079C11.9889 22.6937 13.9996 22.4957 15.8268 21.7388C17.6541 20.9819 19.2159 19.7002 20.3147 18.0557C21.4135 16.4112 22 14.4778 22 12.5C22 11.1868 21.7413 9.88642 21.2388 8.67317C20.7363 7.45991 19.9997 6.35752 19.0711 5.42893C18.1425 4.50035 17.0401 3.76375 15.8268 3.2612C14.6136 2.75866 13.3132 2.5 12 2.5ZM12 18.5C11.8022 18.5 11.6089 18.4414 11.4444 18.3315C11.28 18.2216 11.1518 18.0654 11.0761 17.8827C11.0004 17.7 10.9806 17.4989 11.0192 17.3049C11.0578 17.1109 11.153 16.9327 11.2929 16.7929C11.4328 16.653 11.6109 16.5578 11.8049 16.5192C11.9989 16.4806 12.2 16.5004 12.3827 16.5761C12.5654 16.6518 12.7216 16.78 12.8315 16.9444C12.9414 17.1089 13 17.3022 13 17.5C13 17.7652 12.8946 18.0196 12.7071 18.2071C12.5196 18.3946 12.2652 18.5 12 18.5ZM13 13.34V14.5C13 14.7652 12.8946 15.0196 12.7071 15.2071C12.5196 15.3946 12.2652 15.5 12 15.5C11.7348 15.5 11.4804 15.3946 11.2929 15.2071C11.1054 15.0196 11 14.7652 11 14.5V12.5C11 12.2348 11.1054 11.9804 11.2929 11.7929C11.4804 11.6054 11.7348 11.5 12 11.5C12.2967 11.5 12.5867 11.412 12.8334 11.2472C13.08 11.0824 13.2723 10.8481 13.3858 10.574C13.4994 10.2999 13.5291 9.99834 13.4712 9.70736C13.4133 9.41639 13.2704 9.14912 13.0607 8.93934C12.8509 8.72956 12.5836 8.5867 12.2926 8.52882C12.0017 8.47094 11.7001 8.50065 11.426 8.61418C11.1519 8.72771 10.9176 8.91997 10.7528 9.16665C10.588 9.41332 10.5 9.70333 10.5 10C10.5 10.2652 10.3946 10.5196 10.2071 10.7071C10.0196 10.8946 9.76522 11 9.5 11C9.23479 11 8.98043 10.8946 8.7929 10.7071C8.60536 10.5196 8.5 10.2652 8.5 10C8.49739 9.3503 8.67566 8.7127 9.01487 8.15857C9.35408 7.60445 9.84083 7.15568 10.4206 6.8625C11.0004 6.56933 11.6504 6.44332 12.2977 6.49859C12.9451 6.55386 13.5643 6.78823 14.086 7.17545C14.6077 7.56267 15.0113 8.08746 15.2517 8.69107C15.492 9.29467 15.5596 9.95327 15.4469 10.5931C15.3342 11.233 15.0456 11.8288 14.6134 12.314C14.1813 12.7991 13.6226 13.1544 13 13.34Z" fill="#036C03"/>
</g>
<defs>
<clipPath id="clip0_21_2781">
<rect width="24" height="24" fill="white" transform="translate(0 0.5)"/>
</clipPath>
</defs>
</svg>
