<svg width="24" height="24" viewBox="0 0 24 24" fill="none" xmlns="http://www.w3.org/2000/svg">
<g clip-path="url(#clip0_115_3038)">
<path d="M19.74 7.33L15.3 2.33C15.2065 2.2264 15.0924 2.14353 14.9649 2.08669C14.8375 2.02986 14.6995 2.00033 14.56 2H6.56C6.22775 1.99603 5.89797 2.05756 5.5895 2.18105C5.28103 2.30455 4.9999 2.4876 4.76218 2.71975C4.52446 2.9519 4.33479 3.22861 4.20402 3.53406C4.07324 3.83952 4.00392 4.16775 4 4.5V19.5C4.00392 19.8322 4.07324 20.1605 4.20402 20.4659C4.33479 20.7714 4.52446 21.0481 4.76218 21.2802C4.9999 21.5124 5.28103 21.6954 5.5895 21.8189C5.89797 21.9424 6.22775 22.004 6.56 22H17.44C17.7723 22.004 18.102 21.9424 18.4105 21.8189C18.719 21.6954 19.0001 21.5124 19.2378 21.2802C19.4755 21.0481 19.6652 20.7714 19.796 20.4659C19.9268 20.1605 19.9961 19.8322 20 19.5V8C19.9994 7.75216 19.9067 7.51339 19.74 7.33ZM9 12H12C12.2652 12 12.5196 12.1054 12.7071 12.2929C12.8946 12.4804 13 12.7348 13 13C13 13.2652 12.8946 13.5196 12.7071 13.7071C12.5196 13.8946 12.2652 14 12 14H9C8.73478 14 8.48043 13.8946 8.29289 13.7071C8.10536 13.5196 8 13.2652 8 13C8 12.7348 8.10536 12.4804 8.29289 12.2929C8.48043 12.1054 8.73478 12 9 12ZM15 18H9C8.73478 18 8.48043 17.8946 8.29289 17.7071C8.10536 17.5196 8 17.2652 8 17C8 16.7348 8.10536 16.4804 8.29289 16.2929C8.48043 16.1054 8.73478 16 9 16H15C15.2652 16 15.5196 16.1054 15.7071 16.2929C15.8946 16.4804 16 16.7348 16 17C16 17.2652 15.8946 17.5196 15.7071 17.7071C15.5196 17.8946 15.2652 18 15 18ZM14.71 8C14.5038 7.9797 14.3139 7.87923 14.1811 7.72025C14.0483 7.56126 13.9833 7.35647 14 7.15V4L17.74 8H14.71Z" fill="#036C03"/>
</g>
<defs>
<clipPath id="clip0_115_3038">
<rect width="24" height="24" fill="white"/>
</clipPath>
</defs>
</svg>
