<svg width="24" height="24" viewBox="0 0 24 24" fill="none" xmlns="http://www.w3.org/2000/svg">
<g clip-path="url(#clip0_21_2744)">
<path d="M17 11H7V22H17V11Z" fill="#036C03"/>
<path d="M20.4201 10.1758L12.7101 2.2958C12.6172 2.20207 12.5066 2.12768 12.3847 2.07691C12.2628 2.02614 12.1321 2 12.0001 2C11.8681 2 11.7374 2.02614 11.6155 2.07691C11.4937 2.12768 11.3831 2.20207 11.2901 2.2958L3.58012 10.1858C3.39355 10.3739 3.24621 10.5971 3.14664 10.8426C3.04708 11.0881 2.99727 11.3509 3.00012 11.6158V19.9958C2.99934 20.5077 3.19489 21.0004 3.54649 21.3725C3.89809 21.7446 4.37898 21.9676 4.89012 21.9958H8.00012V12.9958C8.00012 12.7306 8.10547 12.4762 8.29301 12.2887C8.48055 12.1012 8.7349 11.9958 9.00012 11.9958H15.0001C15.2653 11.9958 15.5197 12.1012 15.7072 12.2887C15.8948 12.4762 16.0001 12.7306 16.0001 12.9958V21.9958H19.1101C19.6213 21.9676 20.1021 21.7446 20.4537 21.3725C20.8053 21.0004 21.0009 20.5077 21.0001 19.9958V11.6158C21.0009 11.0787 20.7929 10.5624 20.4201 10.1758Z" fill="#036C03"/>
<path d="M15 12H13V10C13 9.73478 12.8946 9.48043 12.7071 9.29289C12.5196 9.10536 12.2652 9 12 9C11.7348 9 11.4804 9.10536 11.2929 9.29289C11.1054 9.48043 11 9.73478 11 10V12H9C8.73478 12 8.48043 12.1054 8.29289 12.2929C8.10536 12.4804 8 12.7348 8 13C8 13.2652 8.10536 13.5196 8.29289 13.7071C8.48043 13.8946 8.73478 14 9 14H11V16C11 16.2652 11.1054 16.5196 11.2929 16.7071C11.4804 16.8946 11.7348 17 12 17C12.2652 17 12.5196 16.8946 12.7071 16.7071C12.8946 16.5196 13 16.2652 13 16V14H15C15.2652 14 15.5196 13.8946 15.7071 13.7071C15.8946 13.5196 16 13.2652 16 13C16 12.7348 15.8946 12.4804 15.7071 12.2929C15.5196 12.1054 15.2652 12 15 12Z" fill="white"/>
</g>
<defs>
<clipPath id="clip0_21_2744">
<rect width="24" height="24" fill="white"/>
</clipPath>
</defs>
</svg>
